<svg width="108" height="108" viewBox="0 0 108 108" fill="none" xmlns="http://www.w3.org/2000/svg">
<path d="M73.1026 29.97H52.1774C51.0218 29.97 50.085 30.907 50.085 32.0626V40.4326C50.085 41.588 51.0218 42.525 52.1774 42.525H73.1026C74.2582 42.525 75.195 41.588 75.195 40.4326V32.0626C75.195 30.907 74.2582 29.97 73.1026 29.97ZM71.01 38.34H54.27V34.155H71.01V38.34Z" fill="#B3B3B3"/>
<path d="M73.1026 46.71H52.1774C51.0218 46.71 50.085 47.647 50.085 48.8026V57.1726C50.085 58.328 51.0218 59.265 52.1774 59.265H73.1026C74.2582 59.265 75.195 58.328 75.195 57.1726V48.8026C75.195 47.647 74.2582 46.71 73.1026 46.71ZM71.01 55.08H54.27V50.895H71.01V55.08Z" fill="#B3B3B3"/>
<path d="M62.64 71.82C60.3325 71.82 58.455 73.6975 58.455 76.005C58.455 78.3125 60.3325 80.19 62.64 80.19C64.9475 80.19 66.825 78.3125 66.825 76.005C66.825 73.6975 64.9475 71.82 62.64 71.82Z" fill="#B3B3B3"/>
<path d="M64.7326 67.635V65.5426C64.7326 64.387 63.7958 63.45 62.64 63.45C61.4842 63.45 60.5474 64.387 60.5474 65.5426V67.635C60.5474 68.7906 61.4842 69.7274 62.64 69.7274C63.7958 69.7274 64.7326 68.7906 64.7326 67.635Z" fill="#B3B3B3"/>
<path fill-rule="evenodd" clip-rule="evenodd" d="M30.0376 21.6H77.2874C80.749 21.6 83.565 24.4162 83.565 27.8774V82.2826C83.565 85.7438 80.749 88.56 77.2874 88.56H30.0376C26.576 88.56 23.76 85.7438 23.76 82.2826V27.8774C23.76 24.4162 26.576 21.6 30.0376 21.6ZM47.9926 84.375H77.2874C78.4413 84.375 79.38 83.4363 79.38 82.2826V27.8774C79.38 26.7237 78.4413 25.785 77.2874 25.785H47.9926C46.8387 25.785 45.9 26.7237 45.9 27.8774V82.2826C45.9 83.4363 46.8387 84.375 47.9926 84.375ZM42.0736 25.785C41.8414 26.4397 41.715 27.1441 41.715 27.8774V82.2826C41.715 83.0159 41.8414 83.7203 42.0736 84.375H30.0376C28.8837 84.375 27.945 83.4363 27.945 82.2826V27.8774C27.945 26.7237 28.8837 25.785 30.0376 25.785H42.0736Z" fill="#B3B3B3"/>
</svg>
