<svg width="108" height="108" viewBox="0 0 108 108" fill="none" xmlns="http://www.w3.org/2000/svg">
<path d="M76.9837 21.6H28.8563C23.6641 21.6 19.44 25.8241 19.44 31.0163V79.1437C19.44 84.3359 23.6641 88.56 28.8563 88.56H76.9837C82.1759 88.56 86.4 84.3359 86.4 79.1437V31.0163C86.4 25.8241 82.1759 21.6 76.9837 21.6ZM82.215 79.1437C82.215 82.0282 79.8682 84.375 76.9837 84.375H28.8563C25.9718 84.375 23.625 82.0282 23.625 79.1437V31.0163C23.625 28.1318 25.9718 25.785 28.8563 25.785H76.9837C79.8682 25.785 82.215 28.1318 82.215 31.0163V79.1437Z" fill="#B3B3B3" stroke="#B3B3B3" stroke-width="0.1"/>
<path d="M70.891 37.5598C70.7916 37.4365 70.6802 37.3231 70.5555 37.2248C60.7725 27.6318 45.1788 27.6396 35.4048 37.2365C35.2782 37.3378 35.1622 37.4516 35.0622 37.5795C25.4649 47.3707 25.4884 62.966 35.0814 72.7313C35.1806 72.8546 35.292 72.968 35.4169 73.0663C45.182 82.6418 60.7764 82.6656 70.5648 73.057C70.6862 72.9605 70.7957 72.8503 70.8929 72.7289C80.5375 62.9089 80.4617 47.3023 70.891 37.5598ZM68.4489 69.2291C65.7571 68.8204 65.6167 67.9426 65.4307 65.3527C65.2683 63.0904 65.0147 59.57 60.8107 58.1135C61.0422 57.505 61.204 56.8629 61.2878 56.1965C63.5645 54.4767 64.2935 55.0206 66.2638 56.7272C68.494 58.6585 70.5901 59.9538 73.5499 59.0203C72.8192 62.9068 71.0119 66.4174 68.4489 69.2291ZM53.9678 76.0467C52.3418 73.8444 52.8695 73.124 54.5679 71.1629C56.0531 69.4481 58.3634 66.7792 56.4196 62.7759C57.024 62.5028 57.5899 62.1605 58.1079 61.7585C60.9345 62.1505 61.069 63.0472 61.2563 65.6528C61.4032 67.6994 61.6248 70.7754 64.7782 72.422C61.671 74.5494 57.9643 75.8611 53.9678 76.0467ZM32.0849 56.1272C34.2874 54.5011 35.0078 55.0286 36.9688 56.7272C38.2158 57.8072 39.9665 59.3238 42.3688 59.3238C43.27 59.3238 44.2634 59.1099 45.3559 58.5794C45.6289 59.1836 45.9713 59.7497 46.3733 60.2677C46.1912 61.5792 45.8214 62.4406 45.2693 62.8296C43.4819 64.0896 38.1588 62.2467 35.7096 66.9375C33.5824 63.8306 32.2704 60.1236 32.0849 56.1272ZM37.5235 41.0618C40.2153 41.4705 40.3557 42.3483 40.5417 44.9382C40.7041 47.2005 40.9577 50.7209 45.1617 52.1776C44.9302 52.7859 44.7684 53.428 44.6846 54.0944C42.4079 55.8142 41.6785 55.2701 39.7086 53.5637C38.156 52.2193 35.8214 50.198 32.4225 51.27C33.1532 47.3839 34.9607 43.8733 37.5235 41.0618ZM52.0046 34.2442C53.6306 36.4465 53.103 37.1669 51.4045 39.128C49.9193 40.8428 47.609 43.5117 49.5528 47.515C48.9484 47.7881 48.3825 48.1304 47.8645 48.5324C45.0379 48.1404 44.9032 47.2437 44.7161 44.6381C44.5692 42.5915 44.3476 39.5155 41.1942 37.8689C44.3014 35.7415 48.0082 34.4298 52.0046 34.2442ZM73.8876 54.1639C71.6852 55.7898 70.9646 55.2623 69.0036 53.5637C67.2888 52.0787 64.6201 49.7679 60.6165 51.7119C60.3435 51.1075 60.0011 50.5416 59.5989 50.0234C59.9914 47.1971 60.8878 47.0625 63.4932 46.8752C65.5402 46.7281 68.6163 46.5067 70.2626 43.3534C72.39 46.4603 73.702 50.1673 73.8876 54.1639ZM48.8011 55.1455C48.8011 52.8379 50.6786 50.9605 52.9861 50.9605C55.2938 50.9605 57.1711 52.8379 57.1711 55.1455C57.1711 57.4532 55.2938 59.3305 52.9861 59.3305C50.6786 59.3305 48.8011 57.4532 48.8011 55.1455ZM65.9841 42.1148C64.0907 43.4491 58.0459 41.2839 55.9542 47.3209C55.3457 47.0893 54.7035 46.9277 54.0374 46.8439C53.2408 45.7894 52.8941 44.9202 53.0094 44.2554C53.3807 42.1107 58.4524 39.6254 56.8616 34.5818C60.7476 35.3125 64.2583 37.12 67.0699 39.6829C66.8818 40.9219 66.5181 41.7385 65.9841 42.1148ZM39.9883 68.1761C41.8818 66.8419 47.9265 69.007 50.0183 62.97C50.6267 63.2016 51.2687 63.3632 51.935 63.447C52.7317 64.5015 53.0783 65.3707 52.963 66.0355C52.5917 68.1802 47.52 70.6655 49.1108 75.7091C45.2248 74.9784 41.7141 73.1709 38.9025 70.608C39.0906 69.369 39.4543 68.5524 39.9883 68.1761Z" fill="#B3B3B3" stroke="#B3B3B3" stroke-width="0.1"/>
<path d="M76.0028 34.2205C77.1584 34.2205 78.0954 33.2835 78.0954 32.1279C78.0954 30.9723 77.1584 30.0355 76.0028 30.0355C74.8472 30.0355 73.9104 30.9723 73.9104 32.1279C73.9104 33.2835 74.8472 34.2205 76.0028 34.2205Z" fill="#B3B3B3" stroke="#B3B3B3" stroke-width="0.1"/>
<path d="M29.9678 34.2205C31.1234 34.2205 32.0604 33.2835 32.0604 32.1279C32.0604 30.9723 31.1234 30.0355 29.9678 30.0355C28.8122 30.0355 27.8754 30.9723 27.8754 32.1279C27.8754 33.2835 28.8122 34.2205 29.9678 34.2205Z" fill="#B3B3B3" stroke="#B3B3B3" stroke-width="0.1"/>
<path d="M76.0028 80.2554C77.1584 80.2554 78.0954 79.3184 78.0954 78.1628C78.0954 77.0072 77.1584 76.0704 76.0028 76.0704C74.8472 76.0704 73.9104 77.0072 73.9104 78.1628C73.9104 79.3184 74.8472 80.2554 76.0028 80.2554Z" fill="#B3B3B3" stroke="#B3B3B3" stroke-width="0.1"/>
<path d="M29.9678 80.2554C31.1234 80.2554 32.0604 79.3184 32.0604 78.1628C32.0604 77.0072 31.1234 76.0704 29.9678 76.0704C28.8122 76.0704 27.8754 77.0072 27.8754 78.1628C27.8754 79.3184 28.8122 80.2554 29.9678 80.2554Z" fill="#B3B3B3" stroke="#B3B3B3" stroke-width="0.1"/>
</svg>
