<svg width="108" height="108" viewBox="0 0 108 108" fill="none" xmlns="http://www.w3.org/2000/svg">
<path d="M64.2881 38.6229H43.7117C40.9056 38.6229 38.6227 40.9058 38.6227 43.7119V64.2883C38.6227 67.0943 40.9056 69.3772 43.7117 69.3772H64.2881C67.0941 69.3772 69.377 67.0943 69.377 64.2883V43.7119C69.377 40.9056 67.0944 38.6229 64.2881 38.6229ZM64.9979 64.2883C64.9979 64.6797 64.6795 64.998 64.2881 64.998H43.7117C43.3205 64.998 43.0019 64.6797 43.0019 64.2883V43.7119C43.0019 43.3205 43.3203 43.0019 43.7117 43.0019H64.2881C64.6793 43.0019 64.9979 43.3205 64.9979 43.7119V64.2883Z" fill="#B3B3B3"/>
<path d="M86.3704 49.2821C87.5798 49.2821 88.56 48.3016 88.56 47.0925C88.56 45.8833 87.5798 44.9029 86.3704 44.9029H79.3571V40.3939H86.3704C87.5798 40.3939 88.56 39.4135 88.56 38.2043C88.56 36.9949 87.5798 36.0147 86.3704 36.0147H79.283C78.788 32.2222 75.7776 29.2118 71.9852 28.7169V21.6295C71.9852 20.4203 71.005 19.4399 69.7957 19.4399C68.5863 19.4399 67.6061 20.4203 67.6061 21.6295V28.6431H63.0968V21.6295C63.0968 20.4203 62.1166 19.4399 60.9073 19.4399C59.6981 19.4399 58.7177 20.4203 58.7177 21.6295V28.6431H49.2821V21.6295C49.2821 20.4203 48.3019 19.4399 47.0925 19.4399C45.8832 19.4399 44.9029 20.4203 44.9029 21.6295V28.6431H40.3939V21.6295C40.3939 20.4203 39.4135 19.4399 38.2044 19.4399C36.995 19.4399 36.0148 20.4203 36.0148 21.6295V28.7169C32.2222 29.2118 29.2118 32.2222 28.717 36.0147H21.6296C20.4203 36.0147 19.44 36.9949 19.44 38.2043C19.44 39.4135 20.4203 40.3939 21.6296 40.3939H28.6429V44.9029H21.6296C20.4203 44.9029 19.44 45.8833 19.44 47.0925C19.44 48.3016 20.4203 49.2821 21.6296 49.2821H28.6429V58.7178H21.6296C20.4203 58.7178 19.44 59.6982 19.44 60.9074C19.44 62.1166 20.4203 63.097 21.6296 63.097H28.6429V67.606H21.6296C20.4203 67.606 19.44 68.5864 19.44 69.7956C19.44 71.005 20.4203 71.9852 21.6296 71.9852H28.717C29.2121 75.7777 32.2225 78.7881 36.0148 79.283V86.3704C36.0148 87.5795 36.995 88.5599 38.2044 88.5599C39.4137 88.5599 40.3939 87.5795 40.3939 86.3704V79.3568H44.9032V86.3704C44.9032 87.5795 45.8834 88.5599 47.0928 88.5599C48.3019 88.5599 49.2823 87.5795 49.2823 86.3704V79.3568H58.7179V86.3704C58.7179 87.5795 59.6981 88.5599 60.9075 88.5599C62.1169 88.5599 63.0971 87.5795 63.0971 86.3704V79.3568H67.6061V86.3704C67.6061 87.5795 68.5865 88.5599 69.7957 88.5599C71.005 88.5599 71.9852 87.5795 71.9852 86.3704V79.283C75.7778 78.7881 78.7882 75.7775 79.283 71.9852H86.3706C87.5798 71.9852 88.5602 71.005 88.5602 69.7956C88.5602 68.5864 87.5798 67.606 86.3706 67.606H79.3571V63.097H86.3706C87.5798 63.097 88.5602 62.1166 88.5602 60.9074C88.5602 59.6982 87.5798 58.7178 86.3706 58.7178H79.3571V49.2821H86.3704ZM74.9779 70.8836C74.9779 73.141 73.1411 74.9776 70.8836 74.9776H37.1164C34.8589 74.9776 33.0221 73.141 33.0221 70.8836V37.1163C33.0221 34.8589 34.8589 33.0222 37.1164 33.0222H70.8836C73.1411 33.0222 74.9779 34.8589 74.9779 37.1163V70.8836Z" fill="#B3B3B3"/>
</svg>
