<svg width="108" height="108" viewBox="0 0 108 108" fill="none" xmlns="http://www.w3.org/2000/svg">
<path fill-rule="evenodd" clip-rule="evenodd" d="M77.3124 21H31.2774C27.8162 21 25 23.8162 25 27.2774V81.6826C25 85.1438 27.8162 87.96 31.2774 87.96H77.3124C80.7738 87.96 83.59 85.1438 83.59 81.6826V27.2774C83.59 23.8162 80.7738 21 77.3124 21ZM31.2774 83.775C30.1237 83.775 29.185 82.8363 29.185 81.6826V73.3126H32.7905L41.74 78.6822V83.775H31.2774ZM79.405 81.6826C79.405 82.8363 78.4663 83.775 77.3124 83.775H45.925V77.4974C45.925 76.7626 45.5392 76.0813 44.9092 75.7031L40.6682 73.1586L44.8588 68.968C58.6748 75.9783 75.22 65.9045 75.22 50.295C75.22 38.7569 65.8331 29.37 54.295 29.37C42.7569 29.37 33.37 38.7569 33.37 50.295C33.37 56.9076 36.454 62.8126 41.2583 66.6501L36.9692 70.9392C36.7493 70.8072 36.5465 70.6848 36.3588 70.5711C36.226 70.4906 36.1007 70.4143 35.9823 70.3424L35.7004 70.1705C34.2359 69.2771 33.9904 69.1274 33.37 69.1274H29.185V27.2774C29.185 26.1237 30.1237 25.185 31.2774 25.185H77.3124C78.4663 25.185 79.405 26.1237 79.405 27.2774V81.6826ZM49.497 61.3704C48.6799 60.5533 47.3549 60.5533 46.5378 61.3704L44.2389 63.6693C40.1824 60.6116 37.555 55.7546 37.555 50.295C37.555 41.0645 45.0645 33.555 54.295 33.555C63.5255 33.555 71.035 41.0645 71.035 50.295C71.035 62.1906 58.9405 70.2493 48.0152 65.8116L49.497 64.3296C50.3143 63.5125 50.3143 62.1875 49.497 61.3704ZM37.555 31.4626C37.555 32.6182 36.6182 33.555 35.4626 33.555C34.3068 33.555 33.37 32.6182 33.37 31.4626C33.37 30.3068 34.3068 29.37 35.4626 29.37C36.6182 29.37 37.555 30.3068 37.555 31.4626ZM73.1276 33.555C74.2832 33.555 75.22 32.6182 75.22 31.4626C75.22 30.3068 74.2832 29.37 73.1276 29.37C71.9718 29.37 71.035 30.3068 71.035 31.4626C71.035 32.6182 71.9718 33.555 73.1276 33.555ZM52.2024 73.3126C51.047 73.3126 50.11 74.2494 50.11 75.405V79.59C50.11 80.7456 51.047 81.6826 52.2024 81.6826C53.358 81.6826 54.295 80.7456 54.295 79.59V75.405C54.295 74.2494 53.358 73.3126 52.2024 73.3126ZM56.3874 75.405C56.3874 74.2494 57.3244 73.3126 58.48 73.3126C59.6356 73.3126 60.5724 74.2494 60.5724 75.405V79.59C60.5724 80.7456 59.6356 81.6826 58.48 81.6826C57.3244 81.6826 56.3874 80.7456 56.3874 79.59V75.405ZM62.665 75.405C62.665 74.2494 63.602 73.3126 64.7576 73.3126C65.913 73.3126 66.85 74.2494 66.85 75.405V79.59C66.85 80.7456 65.913 81.6826 64.7576 81.6826C63.602 81.6826 62.665 80.7456 62.665 79.59V75.405ZM75.22 77.4974C75.22 78.6532 74.2832 79.59 73.1276 79.59C71.9718 79.59 71.035 78.6532 71.035 77.4974C71.035 76.3418 71.9718 75.405 73.1276 75.405C74.2832 75.405 75.22 76.3418 75.22 77.4974ZM54.295 37.74C55.4506 37.74 56.3876 38.6768 56.3876 39.8326C56.3876 40.988 55.4506 41.925 54.295 41.925C49.6797 41.925 45.925 45.6797 45.925 50.295C45.925 51.4506 44.988 52.3874 43.8324 52.3874C42.677 52.3874 41.74 51.4506 41.74 50.295C41.74 43.3722 47.3722 37.74 54.295 37.74ZM52.2026 60.7574C52.2026 61.913 53.1394 62.85 54.295 62.85C61.2178 62.85 66.85 57.2178 66.85 50.295C66.85 49.1394 65.913 48.2026 64.7576 48.2026C63.602 48.2026 62.665 49.1394 62.665 50.295C62.665 54.9103 58.9103 58.665 54.295 58.665C53.1394 58.665 52.2026 59.602 52.2026 60.7574ZM54.295 54.48C51.9875 54.48 50.11 52.6025 50.11 50.295C50.11 47.9875 51.9875 46.11 54.295 46.11C56.6025 46.11 58.48 47.9875 58.48 50.295C58.48 52.6025 56.6025 54.48 54.295 54.48Z" fill="#B3B3B3"/>
</svg>
