<svg width="109" height="108" viewBox="0 0 109 108" fill="none" xmlns="http://www.w3.org/2000/svg">
<path fill-rule="evenodd" clip-rule="evenodd" d="M30.469 30.2063H89.3885C90.5879 30.2063 91.56 31.1694 91.56 32.3579V75.389C91.56 76.5774 90.5879 77.5405 89.3885 77.5405H65.3575V79.6921C65.3575 80.8805 64.3854 81.8437 63.186 81.8437C61.9866 81.8437 61.0145 80.8805 61.0145 79.6921V77.5405H56.6715V79.6921C56.6715 80.8805 55.6994 81.8437 54.5 81.8437C53.3006 81.8437 52.3285 80.8805 52.3285 79.6921V77.5405H47.9855V79.6921C47.9855 80.8805 47.0134 81.8437 45.814 81.8437C44.6146 81.8437 43.6425 80.8805 43.6425 79.6921V77.5405H39.2995V79.6921C39.2995 80.8805 38.3275 81.8437 37.128 81.8437C35.9288 81.8437 34.9567 80.8805 34.9567 79.6921V77.5405H30.469V83.9953C30.469 85.1837 29.4969 86.1468 28.2975 86.1468C27.0981 86.1468 26.126 85.1837 26.126 83.9953V68.9344H19.6115C18.4121 68.9344 17.44 67.9713 17.44 66.7829V40.9639C17.44 39.7757 18.4121 38.8126 19.6115 38.8126H26.126V25.9031H19.6115C18.4121 25.9031 17.44 24.94 17.44 23.7516C17.44 22.5631 18.4121 21.6 19.6115 21.6H28.2975C29.4969 21.6 30.469 22.5631 30.469 23.7516V30.2063ZM21.783 64.6313H26.126V60.3281H21.783V64.6313ZM21.783 56.025H26.126V51.7218H21.783V56.025ZM21.783 47.4187H26.126V43.1155H21.783V47.4187ZM30.469 34.5094V73.2374H87.217V34.5094H30.469ZM82.874 53.8745C82.8736 62.1788 75.9898 68.9344 67.529 68.9344C59.1467 68.9344 52.3285 62.1732 52.3285 53.8734C52.3285 45.568 59.1523 38.813 67.5277 38.8126H67.5301C75.9904 38.813 82.8736 45.5708 82.874 53.8745ZM57.375 57.6778C57.8064 58.8051 58.4229 59.8428 59.1896 60.7534C60.735 60.4076 61.9419 59.1671 62.2235 57.6117C62.1296 57.4813 62.0391 57.3491 61.9554 57.2117C60.9794 57.6016 59.9271 57.8072 58.843 57.8072C58.3453 57.8072 57.855 57.7618 57.375 57.6778ZM71.4992 62.4797C71.4992 62.98 71.4523 63.4731 71.3647 63.9554C72.507 63.5385 73.56 62.9419 74.4873 62.1996C74.1592 60.6374 72.8931 59.4132 71.3019 59.1308C71.17 59.2233 71.0362 59.3129 70.8982 59.3957C71.2917 60.3629 71.4992 61.4055 71.4992 62.4797ZM77.5003 58.4131C78.0255 57.3147 78.366 56.1163 78.4835 54.8556C77.1116 54 75.2909 54.0302 73.9517 54.9469C73.9247 55.1072 73.8913 55.2657 73.8527 55.4221C75.3406 56.0513 76.6061 57.0979 77.5003 58.4131ZM77.8208 50.075C77.3798 48.9372 76.7476 47.8904 75.9614 46.9733C74.3707 47.2886 73.1216 48.5488 72.8349 50.1351C72.9299 50.2673 73.0208 50.4023 73.1063 50.5414C74.0989 50.1468 75.1742 49.9396 76.2871 49.9396C76.8086 49.9396 77.3209 49.9867 77.8208 50.075ZM72.02 44.0564C70.9337 43.5795 69.7559 43.2697 68.5191 43.1615C67.6703 44.4878 67.7008 46.2112 68.6101 47.5094C68.7729 47.5364 68.9331 47.5688 69.0914 47.6075C69.7116 46.1676 70.7353 44.9383 72.02 44.0564ZM67.529 51.7218C66.3317 51.7218 65.3575 52.6867 65.3575 53.8727C65.3579 55.0588 66.3313 56.025 67.5283 56.025C68.7256 56.025 69.7005 55.0601 69.7005 53.8741C69.7005 52.688 68.726 51.7218 67.529 51.7218ZM66.4471 60.2374C66.2849 60.2104 66.1242 60.178 65.9659 60.1393C65.3494 61.5703 64.3344 62.7933 63.0609 63.6742C64.1389 64.1582 65.3093 64.4738 66.5393 64.5846C67.3875 63.2579 67.357 61.5349 66.4471 60.2374ZM63.5586 45.2671C63.5586 44.7742 63.6043 44.2884 63.6891 43.8126C62.5514 44.2402 61.5041 44.8515 60.5853 45.6105C60.9341 47.142 62.1862 48.3375 63.7558 48.6162C63.8877 48.5237 64.0218 48.4341 64.1598 48.3511C63.7661 47.3839 63.5586 46.3413 63.5586 45.2671ZM61.205 52.3247C59.7608 51.714 58.5262 50.7084 57.6372 49.4465C57.1487 50.5144 56.8304 51.6743 56.7184 52.893C58.0575 53.7334 59.7963 53.703 61.1061 52.8016C61.1333 52.6407 61.166 52.4817 61.205 52.3247ZM37.128 51.7218H45.814C47.0134 51.7218 47.9855 50.7587 47.9855 49.5702C47.9855 48.3818 47.0134 47.4187 45.814 47.4187H37.128C35.9288 47.4187 34.9567 48.3818 34.9567 49.5702C34.9567 50.7587 35.9288 51.7218 37.128 51.7218ZM45.814 60.3281H37.128C35.9288 60.3281 34.9567 59.365 34.9567 58.1766C34.9567 56.9881 35.9288 56.025 37.128 56.025H45.814C47.0134 56.025 47.9855 56.9881 47.9855 58.1766C47.9855 59.365 47.0134 60.3281 45.814 60.3281ZM39.2995 40.9639C39.2995 42.1524 38.3275 43.1155 37.128 43.1155C35.9288 43.1155 34.9567 42.1524 34.9567 40.9639C34.9567 39.7757 35.9288 38.8126 37.128 38.8126C38.3275 38.8126 39.2995 39.7757 39.2995 40.9639ZM45.814 43.1155C47.0134 43.1155 47.9855 42.1524 47.9855 40.9639C47.9855 39.7757 47.0134 38.8126 45.814 38.8126C44.6146 38.8126 43.6425 39.7757 43.6425 40.9639C43.6425 42.1524 44.6146 43.1155 45.814 43.1155Z" fill="#B3B3B3"/>
</svg>
