<svg width="108" height="108" viewBox="0 0 108 108" fill="none" xmlns="http://www.w3.org/2000/svg">
<path fill-rule="evenodd" clip-rule="evenodd" d="M40.9084 28.5606C39.6809 28.5606 38.686 29.5557 38.686 30.783V34.8888H38.3771C37.1498 34.8888 36.1547 35.8839 36.1547 37.1112V37.4201H32.049C30.8217 37.4201 29.8266 38.4152 29.8266 39.6425C29.8266 40.8698 30.8217 41.8649 32.049 41.8649H36.1547V43.3652H32.049C30.8217 43.3652 29.8266 44.3604 29.8266 45.5877C29.8266 46.815 30.8217 47.8101 32.049 47.8101H36.1547V48.119C36.1547 49.3463 37.1498 50.3414 38.3771 50.3414H38.686V54.4469C38.686 55.6744 39.6809 56.6696 40.9084 56.6696C42.1358 56.6696 43.1309 55.6744 43.1309 54.4469V50.3414H44.631V54.4469C44.631 55.6744 45.6261 56.6696 46.8534 56.6696C48.0809 56.6696 49.0758 55.6744 49.0758 54.4469V50.3414H49.3847C50.6122 50.3414 51.6071 49.3463 51.6071 48.119V47.8101H55.7129C56.9402 47.8101 57.9353 46.815 57.9353 45.5877C57.9353 44.3604 56.9402 43.3652 55.7129 43.3652H51.6071V41.8649H55.7129C56.9402 41.8649 57.9353 40.8698 57.9353 39.6425C57.9353 38.4152 56.9402 37.4201 55.7129 37.4201H51.6071V37.1112C51.6071 35.8839 50.6122 34.8888 49.3847 34.8888H49.0758V30.783C49.0758 29.5557 48.0809 28.5606 46.8534 28.5606C45.6261 28.5606 44.631 29.5557 44.631 30.783V34.8888H43.1309V30.783C43.1309 29.5557 42.1358 28.5606 40.9084 28.5606ZM40.5996 45.8966V39.3336H47.1623V45.8966H40.5996Z" fill="#B3B3B3"/>
<path d="M65.5925 34.8888C64.365 34.8888 63.3701 35.8839 63.3701 37.1112V48.119C63.3701 49.3463 64.365 50.3414 65.5925 50.3414C66.8198 50.3414 67.8149 49.3463 67.8149 48.119V37.1112C67.8149 35.8839 66.8198 34.8888 65.5925 34.8888Z" fill="#B3B3B3"/>
<path d="M73.6268 34.8888C72.3995 34.8888 71.4044 35.8839 71.4044 37.1112V48.119C71.4044 49.3463 72.3995 50.3414 73.6268 50.3414C74.8544 50.3414 75.8493 49.3463 75.8493 48.119V37.1112C75.8493 35.8839 74.8544 34.8888 73.6268 34.8888Z" fill="#B3B3B3"/>
<path fill-rule="evenodd" clip-rule="evenodd" d="M65.5925 57.0408C64.365 57.0408 63.3701 58.036 63.3701 59.2633V75.3335C63.3701 76.5608 64.365 77.5559 65.5925 77.5559H76.6001C77.8274 77.5559 78.8225 76.5608 78.8225 75.3335V59.2633C78.8225 58.036 77.8274 57.0408 76.6001 57.0408H65.5925ZM67.8149 65.0758V61.4857H74.3777V65.0758H67.8149ZM67.8149 73.111V69.5207H74.3777V73.111H67.8149Z" fill="#B3B3B3"/>
<path d="M32.049 65.0743C30.8217 65.0743 29.8266 66.0692 29.8266 67.2967C29.8266 68.5241 30.8217 69.5192 32.049 69.5192H56.2224C57.4497 69.5192 58.4448 68.5241 58.4448 67.2967C58.4448 66.0692 57.4497 65.0743 56.2224 65.0743H32.049Z" fill="#B3B3B3"/>
<path d="M32.049 73.111C30.8217 73.111 29.8266 74.1059 29.8266 75.3334C29.8266 76.5608 30.8217 77.5559 32.049 77.5559H56.2224C57.4497 77.5559 58.4448 76.5608 58.4448 75.3334C58.4448 74.1059 57.4497 73.111 56.2224 73.111H32.049Z" fill="#B3B3B3"/>
<path fill-rule="evenodd" clip-rule="evenodd" d="M23.8224 21.6C22.5951 21.6 21.6 22.5951 21.6 23.8224V84.8256C21.6 86.0529 22.5951 87.048 23.8224 87.048H84.8256C86.0529 87.048 87.048 86.0529 87.048 84.8256V23.8224C87.048 22.5951 86.0529 21.6 84.8256 21.6H23.8224ZM26.0449 82.6032V26.0449H82.6032V82.6032H26.0449Z" fill="#B3B3B3"/>
</svg>
