<svg width="75" height="75" viewBox="0 0 75 75" fill="none" xmlns="http://www.w3.org/2000/svg">
<path fill-rule="evenodd" clip-rule="evenodd" d="M22.822 9.08203C15.4418 9.08203 9.14302 14.991 9.08206 22.8008C9.07245 30.4441 15.2938 36.5627 22.82 36.5627C30.2119 36.5627 36.5009 30.6443 36.562 22.8438C36.5716 15.1932 30.342 9.08203 22.822 9.08203ZM22.938 17.1368C22.9782 16.2501 23.3095 15.2333 24.0673 13.9465C26.9072 14.343 29.3241 16.0742 30.6631 18.4852C27.686 17.7073 25.3992 18.467 23.5397 19.5173C23.1337 18.7477 22.899 17.9974 22.938 17.1368ZM17.1365 22.706C16.2497 22.6658 15.233 22.3346 13.9463 21.5768C14.3428 18.7372 16.0739 16.3201 18.4849 14.9811C17.707 17.9583 18.4667 20.245 19.517 22.1044C18.7475 22.5104 17.9971 22.7451 17.1365 22.706ZM27.1591 30.6635C27.937 27.6863 27.1772 25.3995 26.127 23.5399C26.8964 23.134 27.6469 22.8993 28.5075 22.9384C29.3941 22.9785 30.4111 23.3098 31.6978 24.0675C31.3013 26.9074 29.5702 29.3245 27.1591 30.6635ZM21.5765 31.698C18.7364 31.3013 16.3187 29.5697 14.98 27.158C17.5566 27.833 19.8003 27.4268 22.1041 26.1272C22.5101 26.8969 22.7449 27.6471 22.7059 28.5077C22.6657 29.3946 22.3344 30.4113 21.5765 31.698Z" fill="#B3B3B3"/>
<path fill-rule="evenodd" clip-rule="evenodd" d="M46.6627 9.08203C46.0291 9.08203 45.4221 9.33363 44.9742 9.78148L41.5685 13.1873C41.1209 13.6351 40.8691 14.2423 40.8691 14.8755V20.5518C40.8691 21.8705 41.9381 22.9395 43.2567 22.9395H56.8798C58.1986 22.9395 59.2676 21.8705 59.2676 20.5518V14.8755C59.2676 14.2423 59.0159 13.6349 58.5682 13.1872L55.1625 9.78148C54.7148 9.33363 54.1073 9.08203 53.4741 9.08203H46.6627ZM45.6445 15.8644L47.6515 13.8574H52.485L54.4922 15.8644V18.1641H45.6445V15.8644Z" fill="#B3B3B3"/>
<path fill-rule="evenodd" clip-rule="evenodd" d="M46.6627 27.2461C46.0291 27.2461 45.4221 27.4978 44.9742 27.9455L41.5685 31.3514C41.1209 31.7991 40.8691 32.4063 40.8691 33.0396V38.7157C40.8691 40.0345 41.9381 41.1035 43.2567 41.1035H56.8798C58.1986 41.1035 59.2676 40.0345 59.2676 38.7157V33.0396C59.2676 32.4063 59.0159 31.7991 58.5682 31.3514L55.1625 27.9455C54.7148 27.4976 54.1073 27.2461 53.4741 27.2461H46.6627ZM45.6445 34.0284L47.6515 32.0215H52.485L54.4922 34.0284V36.3281H45.6445V34.0284Z" fill="#B3B3B3"/>
<path fill-rule="evenodd" clip-rule="evenodd" d="M2.3877 0C1.06909 0 0 1.06894 0 2.3877V47.7977C0 49.1166 1.06909 50.1855 2.3877 50.1855H9.08203V55.7447C9.08203 61.4433 13.7179 66.079 19.4165 66.079C32.9409 66.079 41.0529 66.0759 45.8541 66.0741L46.7592 66.0736C49.0905 66.0727 50.5209 66.0722 51.3684 66.0729C51.7922 66.0734 52.0699 66.0738 52.2417 66.075L52.3645 66.0759C52.4255 69.8442 55.5098 72.8906 59.2922 72.8906H63.6914C64.9706 72.8906 66.0152 71.8845 66.0762 70.62H70.5028C71.8216 70.62 72.8906 69.5512 72.8906 68.2324C72.8906 66.9136 71.8216 65.8448 70.5028 65.8448H66.079V61.538H70.5028C71.8216 61.538 72.8906 60.4692 72.8906 59.1504C72.8906 57.8316 71.8216 56.7628 70.5028 56.7628H66.0762C66.0152 55.4984 64.9706 54.4922 63.6914 54.4922H59.2922C55.5291 54.4922 52.4297 57.5154 52.3645 61.3064C51.9872 61.3027 50.1248 61.3029 40.0488 61.3031C35.2641 61.3034 28.6268 61.3036 19.4165 61.3036C16.3513 61.3036 13.8574 58.8098 13.8574 55.7447V50.1855H65.9618C67.2806 50.1855 68.3496 49.1166 68.3496 47.7977V2.3877C68.3496 1.06894 67.2806 0 65.9618 0H2.3877ZM4.77539 45.4102V4.77539H63.5742V45.4102H13.8574V40.9863C13.8574 39.6675 12.7883 38.5987 11.4697 38.5987C10.1511 38.5987 9.08203 39.6675 9.08203 40.9863V45.4102H4.77539ZM57.139 61.4208C57.139 60.2337 58.1051 59.2676 59.2922 59.2676H61.3036V68.1152H59.2922C58.1051 68.1152 57.139 67.1491 57.139 65.9618V61.4208Z" fill="#B3B3B3"/>
</svg>
