<svg width="108" height="108" viewBox="0 0 108 108" fill="none" xmlns="http://www.w3.org/2000/svg">
<path d="M19.4316 73.2881H36.7874C37.9758 73.2881 38.939 72.3248 38.939 71.1366V64.6818H43.2421V71.1366C43.2421 72.3248 44.2055 73.2881 45.3937 73.2881H88.5684C89.7566 73.2881 90.72 72.3248 90.72 71.1366V53.924C90.72 52.7358 89.7566 51.7726 88.5684 51.7726H86.2734V47.4695H88.5684C89.7566 47.4695 90.72 46.5061 90.72 45.3179V36.7116C90.72 35.5234 89.7566 34.56 88.5684 34.56H19.4316C18.2433 34.56 17.28 35.5234 17.28 36.7116V45.3179C17.28 46.5061 18.2433 47.4695 19.4316 47.4695H21.7266V51.7726H19.4316C18.2433 51.7726 17.28 52.7358 17.28 53.924V71.1366C17.28 72.3248 18.2433 73.2881 19.4316 73.2881ZM21.5831 56.0755H23.8782C25.0664 56.0755 26.0297 55.1124 26.0297 53.924V45.3179C26.0297 44.1297 25.0664 43.1663 23.8782 43.1663H21.5831V38.8632H86.4169V43.1663H84.1218C82.9336 43.1663 81.9703 44.1297 81.9703 45.3179V53.924C81.9703 55.1124 82.9336 56.0755 84.1218 56.0755H86.4169V68.985H81.9703V62.5303C81.9703 61.3421 81.0069 60.3787 79.8187 60.3787C78.6305 60.3787 77.6671 61.3421 77.6671 62.5303V68.985H73.364V62.5303C73.364 61.3421 72.4008 60.3787 71.2126 60.3787C70.0242 60.3787 69.061 61.3421 69.061 62.5303V68.985H64.7579V62.5303C64.7579 61.3421 63.7945 60.3787 62.6063 60.3787C61.4181 60.3787 60.4547 61.3421 60.4547 62.5303V68.985H56.1516V62.5303C56.1516 61.3421 55.1882 60.3787 54 60.3787C52.8118 60.3787 51.8484 61.3421 51.8484 62.5303V68.985H47.5453V62.5303C47.5453 61.3421 46.5819 60.3787 45.3937 60.3787H36.7874C35.5992 60.3787 34.636 61.3421 34.636 62.5303V68.985H30.3329V62.5303C30.3329 61.3421 29.3695 60.3787 28.1813 60.3787C26.9931 60.3787 26.0297 61.3421 26.0297 62.5303V68.985H21.5831V56.0755Z" fill="#B3B3B3"/>
<path d="M32.4845 56.0756H41.0905C42.2788 56.0756 43.2421 55.1124 43.2421 53.924V45.3179C43.2421 44.1297 42.2788 43.1663 41.0905 43.1663H32.4845C31.2962 43.1663 30.3329 44.1297 30.3329 45.3179V53.924C30.3329 55.1124 31.2962 56.0756 32.4845 56.0756ZM34.636 47.4695H38.939V51.7726H34.636V47.4695Z" fill="#B3B3B3"/>
<path d="M49.6968 56.0756H58.3032C59.4914 56.0756 60.4547 55.1124 60.4547 53.924V45.3179C60.4547 44.1297 59.4914 43.1663 58.3032 43.1663H49.6968C48.5086 43.1663 47.5453 44.1297 47.5453 45.3179V53.924C47.5453 55.1124 48.5086 56.0756 49.6968 56.0756ZM51.8484 47.4695H56.1516V51.7726H51.8484V47.4695Z" fill="#B3B3B3"/>
<path d="M66.9095 56.0756H75.5155C76.7038 56.0756 77.6671 55.1124 77.6671 53.924V45.3179C77.6671 44.1297 76.7038 43.1663 75.5155 43.1663H66.9095C65.7212 43.1663 64.7579 44.1297 64.7579 45.3179V53.924C64.7579 55.1124 65.7212 56.0756 66.9095 56.0756ZM69.061 47.4695H73.364V51.7726H69.061V47.4695Z" fill="#B3B3B3"/>
</svg>
