<svg width="192" height="192" viewBox="0 0 192 192" fill="none" xmlns="http://www.w3.org/2000/svg">
<path d="M96 0C70.5392 0 46.1212 10.1143 28.1177 28.1177C10.1143 46.1212 0 70.5392 0 96C0.000656344 108.607 2.48442 121.09 7.30948 132.737C12.1345 144.384 19.2064 154.967 28.1213 163.881C37.0362 172.795 47.6195 179.866 59.267 184.689C70.9145 189.513 83.3981 191.996 96.005 191.995C108.612 191.994 121.095 189.511 132.742 184.686C144.389 179.86 154.972 172.789 163.886 163.874C172.8 154.959 179.87 144.376 184.694 132.728C189.518 121.08 192.001 108.597 192 95.99C192 42.98 149.01 0 96 0ZM96 171.99C85.9468 172.105 75.9707 170.225 66.6494 166.457C57.3282 162.69 48.847 157.111 41.6972 150.042C34.5474 142.974 28.8711 134.558 24.9971 125.28C21.123 116.003 19.1282 106.049 19.1282 95.995C19.1282 85.9412 21.123 75.9873 24.9971 66.7098C28.8711 57.4324 34.5474 49.0158 41.6972 41.9475C48.847 34.8793 57.3282 29.2999 66.6494 25.5325C75.9707 21.7652 85.9468 19.8847 96 20C106.053 19.8847 116.029 21.7652 125.351 25.5325C134.672 29.2999 143.153 34.8793 150.303 41.9475C157.453 49.0158 163.129 57.4324 167.003 66.7098C170.877 75.9873 172.872 85.9412 172.872 95.995C172.872 106.049 170.877 116.003 167.003 125.28C163.129 134.558 157.453 142.974 150.303 150.042C143.153 157.111 134.672 162.69 125.351 166.457C116.029 170.225 106.053 172.105 96 171.99ZM71.01 93.5C79.29 93.5 86 85.67 86 76C86 66.33 79.28 58.5 71 58.5C62.72 58.5 56 66.33 56 76C56 85.67 62.72 93.5 71.01 93.5ZM121 93.5C129.29 93.5 136 85.67 136 76C136 66.33 129.28 58.5 121 58.5C112.72 58.5 106 66.34 106 76C106 85.66 112.72 93.5 121 93.5ZM139.41 109.36C137.645 108.47 135.602 108.306 133.717 108.904C131.833 109.502 130.258 110.815 129.33 112.56C128.99 113.22 120.64 128.49 96.01 128.49C71.5 128.49 63.1 113.36 62.68 112.57C61.7809 110.794 60.2133 109.449 58.322 108.829C56.4307 108.209 54.3706 108.366 52.595 109.265C50.8194 110.164 49.4736 111.732 48.8538 113.623C48.234 115.514 48.3909 117.574 49.29 119.35C49.79 120.34 61.77 143.49 96.01 143.49C130.26 143.49 142.22 120.33 142.71 119.34C143.591 117.578 143.739 115.539 143.12 113.669C142.502 111.799 141.168 110.249 139.41 109.36Z" fill="white"/>
</svg>
