<svg width="192" height="192" viewBox="0 0 192 192" fill="none" xmlns="http://www.w3.org/2000/svg">
<path d="M96.01 0C42.98 0 5.20936e-07 42.98 5.20936e-07 96C-0.00131294 108.609 2.48116 121.094 7.30565 132.743C12.1301 144.392 19.2021 154.977 28.1178 163.892C37.0334 172.808 47.6179 179.88 59.267 184.704C70.9161 189.529 83.4014 192.011 96.01 192.01C149.02 192.01 192.01 149.03 192.01 96C192 42.98 149.01 0 96.01 0ZM96 171.99C86.0195 171.99 76.1368 170.024 66.9161 166.205C57.6953 162.385 49.3171 156.787 42.2599 149.73C35.2026 142.673 29.6045 134.295 25.7852 125.074C21.9658 115.853 20 105.97 20 95.99C20 86.0095 21.9658 76.1268 25.7852 66.9061C29.6045 57.6853 35.2026 49.3071 42.2599 42.2499C49.3171 35.1926 57.6953 29.5945 66.9161 25.7752C76.1368 21.9558 86.0195 19.99 96 19.99C116.156 19.99 135.487 27.9971 149.74 42.2499C163.993 56.5027 172 75.8335 172 95.99C172 116.146 163.993 135.477 149.74 149.73C135.487 163.983 116.156 171.99 96 171.99ZM121.01 93.5C129.29 93.5 136.01 85.67 136.01 76C136.01 66.33 129.29 58.5 121.01 58.5C112.73 58.5 106.01 66.33 106.01 76C106.01 85.67 112.72 93.5 121.01 93.5ZM71.01 93.5C79.29 93.5 86.01 85.67 86.01 76C86.01 66.33 79.29 58.5 71.01 58.5C62.73 58.5 56.01 66.33 56.01 76C56.01 85.67 62.72 93.5 71.01 93.5ZM96.02 108.5C61.78 108.5 49.8 131.65 49.3 132.64C48.4089 134.42 48.2612 136.48 48.8894 138.369C49.5177 140.257 50.8704 141.819 52.65 142.71C54.4296 143.601 56.4903 143.749 58.3788 143.121C60.2673 142.492 61.8289 141.14 62.72 139.36C62.8 139.19 70.94 123.5 96.02 123.5C120.65 123.5 129 138.77 129.3 139.35C129.735 140.239 130.342 141.033 131.086 141.686C131.829 142.34 132.695 142.839 133.632 143.157C134.57 143.474 135.561 143.602 136.549 143.535C137.536 143.467 138.501 143.205 139.386 142.762C140.272 142.32 141.061 141.707 141.709 140.959C142.356 140.21 142.849 139.34 143.159 138.4C143.469 137.46 143.59 136.468 143.514 135.481C143.439 134.494 143.169 133.532 142.72 132.65C142.23 131.66 130.26 108.5 96.02 108.5Z" fill="white"/>
</svg>
