<svg width="188" height="36" viewBox="0 0 188 36" fill="none" xmlns="http://www.w3.org/2000/svg">
<path d="M12.856 35V20.792L15.064 26.504L0.0399999 1.4H10.072L20.92 19.592H15.112L26.008 1.4H35.224L20.248 26.504L22.36 20.792V35H12.856ZM47.4059 35.432C44.5579 35.432 42.0299 34.856 39.8219 33.704C37.6139 32.552 35.8699 30.968 34.5899 28.952C33.3419 26.904 32.7179 24.568 32.7179 21.944C32.7179 19.32 33.3419 17 34.5899 14.984C35.8699 12.968 37.6139 11.4 39.8219 10.28C42.0299 9.128 44.5579 8.552 47.4059 8.552C50.2539 8.552 52.7819 9.128 54.9899 10.28C57.2299 11.4 58.9739 12.968 60.2219 14.984C61.4699 17 62.0939 19.32 62.0939 21.944C62.0939 24.568 61.4699 26.904 60.2219 28.952C58.9739 30.968 57.2299 32.552 54.9899 33.704C52.7819 34.856 50.2539 35.432 47.4059 35.432ZM47.4059 28.184C48.4619 28.184 49.3899 27.944 50.1899 27.464C51.0219 26.984 51.6779 26.28 52.1579 25.352C52.6379 24.392 52.8779 23.256 52.8779 21.944C52.8779 20.632 52.6379 19.528 52.1579 18.632C51.6779 17.704 51.0219 17 50.1899 16.52C49.3899 16.04 48.4619 15.8 47.4059 15.8C46.3819 15.8 45.4539 16.04 44.6219 16.52C43.8219 17 43.1659 17.704 42.6539 18.632C42.1739 19.528 41.9339 20.632 41.9339 21.944C41.9339 23.256 42.1739 24.392 42.6539 25.352C43.1659 26.28 43.8219 26.984 44.6219 27.464C45.4539 27.944 46.3819 28.184 47.4059 28.184ZM77.2626 35.432C75.1506 35.432 73.2466 35.016 71.5506 34.184C69.8866 33.352 68.5746 32.056 67.6146 30.296C66.6866 28.504 66.2226 26.248 66.2226 23.528V8.984H75.3426V22.04C75.3426 24.056 75.7106 25.496 76.4466 26.36C77.2146 27.224 78.2866 27.656 79.6626 27.656C80.5586 27.656 81.3746 27.448 82.1106 27.032C82.8466 26.616 83.4386 25.96 83.8866 25.064C84.3346 24.136 84.5586 22.952 84.5586 21.512V8.984H93.6786V35H84.9906V27.656L86.6706 29.72C85.7746 31.64 84.4786 33.08 82.7826 34.04C81.0866 34.968 79.2466 35.432 77.2626 35.432ZM99.553 35V8.984H108.241V16.568L106.945 14.408C107.713 12.456 108.961 11 110.689 10.04C112.417 9.048 114.513 8.552 116.977 8.552V16.76C116.561 16.696 116.193 16.664 115.873 16.664C115.585 16.632 115.265 16.616 114.913 16.616C113.057 16.616 111.553 17.128 110.401 18.152C109.249 19.144 108.673 20.776 108.673 23.048V35H99.553ZM121.126 35V1.4H136.486C139.558 1.4 142.198 1.896 144.406 2.888C146.646 3.88 148.374 5.32 149.59 7.208C150.806 9.064 151.414 11.272 151.414 13.832C151.414 16.36 150.806 18.552 149.59 20.408C148.374 22.264 146.646 23.704 144.406 24.728C142.198 25.72 139.558 26.216 136.486 26.216H126.406L130.63 22.088V35H121.126ZM130.63 23.096L126.406 18.728H135.91C137.894 18.728 139.366 18.296 140.326 17.432C141.318 16.568 141.814 15.368 141.814 13.832C141.814 12.264 141.318 11.048 140.326 10.184C139.366 9.32 137.894 8.888 135.91 8.888H126.406L130.63 4.52V23.096ZM173.268 35.672C170.612 35.672 168.148 35.256 165.876 34.424C163.636 33.56 161.684 32.344 160.02 30.776C158.388 29.208 157.108 27.368 156.18 25.256C155.252 23.112 154.788 20.76 154.788 18.2C154.788 15.64 155.252 13.304 156.18 11.192C157.108 9.048 158.388 7.192 160.02 5.624C161.684 4.056 163.636 2.856 165.876 2.024C168.148 1.16 170.612 0.727998 173.268 0.727998C176.372 0.727998 179.14 1.272 181.572 2.36C184.036 3.448 186.084 5.016 187.716 7.064L181.668 12.536C180.58 11.256 179.38 10.28 178.068 9.608C176.788 8.936 175.348 8.6 173.748 8.6C172.372 8.6 171.108 8.824 169.956 9.272C168.804 9.72 167.812 10.376 166.98 11.24C166.18 12.072 165.54 13.08 165.06 14.264C164.612 15.448 164.388 16.76 164.388 18.2C164.388 19.64 164.612 20.952 165.06 22.136C165.54 23.32 166.18 24.344 166.98 25.208C167.812 26.04 168.804 26.68 169.956 27.128C171.108 27.576 172.372 27.8 173.748 27.8C175.348 27.8 176.788 27.464 178.068 26.792C179.38 26.12 180.58 25.144 181.668 23.864L187.716 29.336C186.084 31.352 184.036 32.92 181.572 34.04C179.14 35.128 176.372 35.672 173.268 35.672Z" fill="black"/>
</svg>
